<svg width="3178.667" height="2245.333" xmlns="http://www.w3.org/2000/svg"><path d="M7690.52 9374.53c1286.58 774.17 2678.98 865.87 3281.58 905.57 385 25.4 686.1 16.8 1110.5 8.2 461.6-9.4 1069-18.8 2088.6 15.6 559.9 18.8 738 33.8 1225.2 37.7 1675.6 13.2 2519.1 11.5 2798.9-395.84 313.5-456.53-50.8-1207.54-301.6-1724.61-412.9-851.43-1008-1572.25-2563.3-2808.35-1113.1-884.7-2178.4-1721.1-3816.7-2516.2-1794.98-871.2-2630.48-893.4-3044.02-876.5-425.57 17.4-1247.96 61.8-2054.44 622-112.13 77.9-1136.03 810.8-1404.19 2054.5-419.78 1946.8 1293.04 3843.73 2679.47 4677.93" style="fill:#f6fdff;fill-opacity:1;fill-rule:nonzero;stroke:none" transform="matrix(.13333 0 0 -.13333 0 2245.333)"/><path d="M16866.5 1544.2c0-413.8-1599.1-749.2-3571.7-749.2s-3571.72 335.4-3571.72 749.2c0 413.8 1599.12 749.2 3571.72 749.2s3571.7-335.4 3571.7-749.2" style="fill:#ddeefc;fill-opacity:1;fill-rule:nonzero;stroke:none" transform="matrix(.13333 0 0 -.13333 0 2245.333)"/><path d="M17234.1 13281.9h-103.7v1196.8h103.7v-1196.8" style="fill:#333;fill-opacity:1;fill-rule:nonzero;stroke:none" transform="matrix(.13333 0 0 -.13333 0 2245.333)"/><path d="M6288.01 8225.37v6314.53c0 343.6 278.5 622.1 622.04 622.1H11933c343.5 0 622-278.5 622-622.1v-220.7c-126.5 296.2-420.4 503.8-762.9 503.8H8181.77c-457.92 0-829.12-371.2-829.12-829.1V9154.35c-359.9-252.37-727.94-567.4-1064.64-928.98" style="fill:#f4f4f4;fill-opacity:1;fill-rule:nonzero;stroke:none" transform="matrix(.13333 0 0 -.13333 0 2245.333)"/><path d="M11619.3 3626.9H6910.05c-343.54 0-622.04 278.5-622.04 622.1v3976.37c336.7 361.58 704.74 676.61 1064.64 928.98V4634.8c0-457.9 371.2-829.1 829.12-829.1h3471.33c-11.7-61.7-23-121.5-33.8-178.8" style="fill:#dfebf2;fill-opacity:1;fill-rule:nonzero;stroke:none" transform="matrix(.13333 0 0 -.13333 0 2245.333)"/><path d="M11792.1 3810.7H8181.77c-455.15 0-824.12 369-824.12 824.1v9359.1c0 455.1 368.97 824.1 824.12 824.1h3610.33c455.2 0 824.2-369 824.2-824.1V4634.8c0-455.1-369-824.1-824.2-824.1" style="fill:#2f2f41;fill-opacity:1;fill-rule:nonzero;stroke:none" transform="matrix(.13333 0 0 -.13333 0 2245.333)"/><path d="M11792.1 3810.7v5H8181.77c-226.21 0-430.96 91.7-579.21 239.9-148.24 148.3-239.91 353-239.91 579.2v9359.1c0 226.2 91.67 430.9 239.91 579.2 148.25 148.2 353 239.9 579.21 239.9h3610.33c226.3 0 431-91.7 579.3-239.9 148.2-148.3 239.9-353 239.9-579.2V4634.8c0-226.2-91.7-430.9-239.9-579.2-148.3-148.2-353-239.9-579.3-239.9v-10c458 0 829.2 371.2 829.2 829.1v9359.1c0 457.9-371.2 829.1-829.2 829.1H8181.77c-457.92 0-829.12-371.2-829.12-829.1V4634.8c0-457.9 371.2-829.1 829.12-829.1h3610.33v5" style="fill:#333;fill-opacity:1;fill-rule:nonzero;stroke:none" transform="matrix(.13333 0 0 -.13333 0 2245.333)"/><path d="M7602.67 4168.8h4843.93v10130.9H7602.67z" style="fill:#f2f2f2;fill-opacity:1;fill-rule:nonzero;stroke:none" transform="matrix(.13333 0 0 -.13333 0 2245.333)"/><path d="M9162.35 13880.3H7861.83v122.5h1300.52v-122.5M10613.7 13889.7H9313.13v113.1h1300.57v-113.1M12093.2 13889.7h-1300.5v113.1h1300.5v-113.1M10613.7 13277.2H9086.96c-78.07 0-141.36 63.2-141.36 141.3 0 78.1 63.29 141.4 141.36 141.4h1526.74c78 0 141.3-63.3 141.3-141.4 0-78.1-63.3-141.3-141.3-141.3" style="fill:#18bdf3;fill-opacity:1;fill-rule:nonzero;stroke:none" transform="matrix(.13333 0 0 -.13333 0 2245.333)"/><path d="M8841.93 11411.2c-8.54-54.6-8.82-96.5-9.01-105.9-6.75-348.6 228.21-499.5 291.73-817.7 39.28-196.6-36.88-207.3-28.27-442.9 13.79-377.29 228.65-885.14 502.48-942.61 607.84-127.54 1389.24 1937.11 1288.14 2516.41-15.1 86.1-63.8 154-136.8 255.9-53.3 74.4-195.3 272.5-447.5 366.1-238.1 88.4-447.39 36.3-631.45-9.4-170.53-42.4-403.06-100.2-593.72-311-184.83-204.4-224.04-435.1-235.6-508.9" style="fill:#585252;fill-opacity:1;fill-rule:nonzero;stroke:none" transform="matrix(.13333 0 0 -.13333 0 2245.333)"/><path d="M9341.41 11076.6c0-91-73.84-164.9-164.92-164.9-91.08 0-164.92 73.9-164.92 164.9 0 91.1 73.84 165 164.92 165 91.08 0 164.92-73.9 164.92-165M10943.5 11152c0-91.1-73.8-164.9-164.9-164.9-91.1 0-164.9 73.8-164.9 164.9 0 91.1 73.8 164.9 164.9 164.9 91.1 0 164.9-73.8 164.9-164.9" style="fill:#f7bb9f;fill-opacity:1;fill-rule:nonzero;stroke:none" transform="matrix(.13333 0 0 -.13333 0 2245.333)"/><path d="M12446.6 6937.9s-920.6-417.2-1826.3-670.7c-572-160.1-1138-254.9-1462.7-138.2-838.7 301.6-772.7 1187.4-744.5 1677.5 4.6 80.1 24.4 201.4 55.9 347.6 112.3 520.2 374 1355.8 634.3 1775.7 113.6 183.4 227 287.5 327.6 251.6 0 0 424.1-245.1 716.3-113.1 292.1 131.9 607.8 296.8 749.2 268.6 141.3-28.3 1672.7-2015.3 1550.2-3399" style="fill:#3b1959;fill-opacity:1;fill-rule:nonzero;stroke:none" transform="matrix(.13333 0 0 -.13333 0 2245.333)"/><path d="M9308.42 9898.64s-4.98-22.92-14.46-64.38c-78.92-345.29-469.85-1977.09-894.84-2374.39-476.03-445-796.45-835.17-796.45-835.17v2689.65s1328.79 744.45 1479.58 697.35c150.78-47.09 226.17-113.06 226.17-113.06M11282.8 10336.9l1272.1-863.67-143.7-1935.16-1463 2643.33s155.5 268.5 334.6 155.5" style="fill:#3b1959;fill-opacity:1;fill-rule:nonzero;stroke:none" transform="matrix(.13333 0 0 -.13333 0 2245.333)"/><path d="M8808.95 4837.9c0-249.8-202.53-452.3-452.35-452.3-249.83 0-452.36 202.5-452.36 452.3s202.53 452.4 452.36 452.4c249.82 0 452.35-202.6 452.35-452.4M11235.6 4451.5v30H9303.71c-99.81 0-189.89 40.4-255.33 105.8-65.4 65.4-105.75 155.5-105.77 255.3.02 99.8 40.37 189.9 105.77 255.4 65.44 65.4 155.52 105.7 255.33 105.7h1931.89c99.9 0 189.9-40.3 255.4-105.7 65.4-65.5 105.7-155.6 105.7-255.4 0-99.8-40.3-189.9-105.7-255.3-65.5-65.4-155.5-105.8-255.4-105.8v-60c116.2 0 221.7 47.2 297.8 123.4 76.2 76.1 123.4 181.5 123.3 297.7.1 116.2-47.1 221.7-123.3 297.8-76.1 76.2-181.6 123.3-297.8 123.3H9303.71c-116.19 0-221.65-47.1-297.76-123.3-76.16-76.1-123.35-181.6-123.34-297.8-.01-116.2 47.18-221.6 123.34-297.7 76.11-76.2 181.57-123.4 297.76-123.4h1931.89v30" style="fill:#18bdf3;fill-opacity:1;fill-rule:nonzero;stroke:none" transform="matrix(.13333 0 0 -.13333 0 2245.333)"/><path d="m9718.37 11006 95.42-1005.7c6.77-151.63 148.42-260.59 296.71-228.24l21.1 4.61c121.6 26.53 203.9 140.1 191.3 263.93l36.3 993.6-640.83-28.2" style="fill:#eca891;fill-opacity:1;fill-rule:nonzero;stroke:none" transform="matrix(.13333 0 0 -.13333 0 2245.333)"/><path d="M9294.29 10940s160.21-471.2 716.21-442.9c556 28.2 645.6 513.6 645.6 513.6s65.9 395.8 0 527.7c-66 132-329.9 537.2-933.02 329.9-603.14-207.4-518.32-659.7-518.32-659.7l89.53-268.6" style="fill:#f7bb9f;fill-opacity:1;fill-rule:nonzero;stroke:none" transform="matrix(.13333 0 0 -.13333 0 2245.333)"/><path d="M9520.58 6077.1c-139.41 0-262.68 15.9-362.98 51.9-656.05 235.9-758.54 829.3-758.57 1311.13 0 6.58.02 13.18.06 19.72l.03.02c33.33 31.16 66.43 69.89 99.21 115.02-2.73-35.05-5.5-70.02-8.33-104.89 16.5-82.47 43.98-201.11 90-340 100.18-302.4 245.78-572.6 330-680 161.63-206.1 484.74-306.2 879.86-306.2 250.84 0 530.74 40.4 816.84 119.6-390.7-108.6-777.79-186.3-1086.12-186.3" style="fill:#200e30;fill-opacity:1;fill-rule:nonzero;stroke:none" transform="matrix(.13333 0 0 -.13333 0 2245.333)"/><path d="M8399.09 7459.85c.71 126.73 8.17 245.16 14.01 346.65 4.6 80.1 24.4 201.4 55.9 347.6 22.8 24.5 47.2 47.81 73 70-9.26-162.91-19.89-327.62-32-494.1-3.77-51.9-7.66-103.6-11.67-155.11-32.78-45.13-65.88-83.86-99.21-115.02" style="fill:#200e30;fill-opacity:1;fill-rule:nonzero;stroke:none" transform="matrix(.13333 0 0 -.13333 0 2245.333)"/><path d="M10606.7 6263.4c4.6 1.3 9.1 2.5 13.6 3.8-4.5-1.3-9.1-2.5-13.6-3.8" style="fill:#dadada;fill-opacity:1;fill-rule:nonzero;stroke:none" transform="matrix(.13333 0 0 -.13333 0 2245.333)"/><path d="M13365.1 11447.1c29.1 98.8 79.3 190.8 104.5 290.7 25.3 100 21 216.2-47.8 293-52.7 58.9-132.2 146.7-207.1 172-74.9 25.4-80 27.6-122.5 94.3-42.6 66.6-98.1 143.2-21.9 164.3 14.6 4.1 36.6-27.2 58.5-58.5 21.5-30.6 43-61.2 57.6-58.7 76 13 93.7 214.5 150.1 267 82.5 76.9 207.5 104.8 314.8 70.3 107.3-34.6 192.7-130.1 214.9-240.6-191.8-288.1-240.3-367.6-236.8-370 9.1-6.4 472.8 469.3 348.6 782.2-55.9 141-216.2 210.7-273.3 235.6-203.4 88.5-390.2 37-452.3 18.8-29-8.4-359.1-110-452.4-386.4-61-181 46.8-237.5 66-546.6 24.5-394.1-123.3-745.6-94.2-753.9 11.9-3.4 26.6 58.8 94.2 94.3 34.1 17.9 65.6 20.5 109.5 24.2 50.8 4.3 92.7 3.4 143.8-11.2 46.4-13.2 90.5-43.1 109-87.6 31.2-75.1-17.6-156.5-40.6-234.5-28.2-95.7-15.5-202.9 34.3-289.3 49.8-86.6 136.1-151.2 233.1-174.8-98.8 24-84.5 213.1-92.7 286.9-16 145.7-40 273.3 2.7 418.5" style="fill:#585252;fill-opacity:1;fill-rule:nonzero;stroke:none" transform="matrix(.13333 0 0 -.13333 0 2245.333)"/><path d="M13619.9 2024.8s-141.3-273.3 66-320.4c207.3-47.1 311-103.6 471.2-329.8 160.2-226.2 508.9-471.202 782.2-386.401 273.3 84.801 253.8 243.001 253.8 243.001l-1573.2 793.6" style="fill:#fff;fill-opacity:1;fill-rule:nonzero;stroke:none" transform="matrix(.13333 0 0 -.13333 0 2245.333)"/><path d="M12201.6 1709.1c-405.2-226.1-273.3-216.7-518.3-471.2-241.6-250.798-822.2 57.1-576.4 165.1 3.5 1.6 7.1 3.2 10.9 4.6 273.3 103.6 452.4 537.1 490.1 716.2 37.7 179.1 169.6 292.1 169.6 292.1s329.9 18.9 488.4-107.8c42.7-34.1 87.2-76.9 121.4-125.6v-.1c92.8-132.1 110.3-308.1-185.7-473.3M13926.2 2378.2s-452.3-395.8-263.9-527.7c188.5-131.9 263.9 18.8 480.7-245 216.7-263.9 490-622 791.6-565.5 301.6 56.6 273.3 254.5 245 282.7-28.3 28.3-508.9 348.7-584.3 527.8-75.4 179.1-103.6 216.7-311 282.7-207.3 66-358.1 245-358.1 245" style="fill:#2e1913;fill-opacity:1;fill-rule:nonzero;stroke:none" transform="matrix(.13333 0 0 -.13333 0 2245.333)"/><path d="M12215.7 1685.6c-405.2-226.2-282.7-197.9-527.7-452.4-241.6-250.798-826.9 61.8-581.1 169.8 40.2-42.1 91-132.1 166.4-169.8 132-66 377 28.3 471.2 179.1 94.3 150.8 367.6 339.2 518.4 452.3 117.3 88.1 126.3 250.1 124.4 317.8 92.8-132.1 124.5-331.6-171.6-496.8" style="fill:#fff;fill-opacity:1;fill-rule:nonzero;stroke:none" transform="matrix(.13333 0 0 -.13333 0 2245.333)"/><path d="m11865.4 2770-106.7-376.7c-29.4-103.6 32.1-211.1 136.2-238.4l42-11c93.7-24.6 191.2 24.6 227.2 114.6l182 455-480.7 56.5M14322 2557.3v-370.6c0-130.7-130.6-221.3-253-175.3l-77.8 29.1c-73.1 27.4-121.5 97.3-121.5 175.4v341.4h452.3" style="fill:#f7bb9f;fill-opacity:1;fill-rule:nonzero;stroke:none" transform="matrix(.13333 0 0 -.13333 0 2245.333)"/><path d="M14859.2 6119.6c-179.1-622-150.8-3138.2-169.6-3383.2-18.9-245.1-386.4-461.8-989.6-216.8-596.8 242.4-12.4 4840.9-.2 4936.7-17.1-90.3-802.4-4251.2-951.6-4474.9-150.8-226.2-84.8-622-584.3-386.4-499.5 235.6-603.1 18.8-650.2 301.6-47.2 282.7 735 3336.1 508.9 4221.89-125.3 490.61 133.8 1096.71 390 1540.01 148.1 256.4 295.3 458.3 366.7 551.8 28 36.9 44.3 56.9 44.3 56.9l947.7-96.5 1087.9-110.8s28-362 50.8-838.3c34.8-729 57.5-1725.8-50.8-2102" style="fill:#4054e6;fill-opacity:1;fill-rule:nonzero;stroke:none" transform="matrix(.13333 0 0 -.13333 0 2245.333)"/><path d="M14142.1 8104.11c-425.4 0-850.8 94.27-1237.1 272.4-119.5 55.09-348 151.49-492.4 281.99 63.8 110.38 127.3 210.65 184.8 296.53 63-31.85 185.6-84.73 344.7-140.93 314.1-110.93 770.6-234.74 1191.3-234.74 50.8 0 101 1.8 150.4 5.64 225.2 17.45 433.2 77.33 594.3 202.36 9.5-147.19 21.3-344.09 31.9-565.76-88.3-35.9-183.3-57.99-277.4-74.7-162-28.72-326.3-42.79-490.5-42.79" style="fill:#2e1913;fill-opacity:1;fill-rule:nonzero;stroke:none" transform="matrix(.13333 0 0 -.13333 0 2245.333)"/><path d="M11702.1 8626.39s-18.8-131.94 66-367.54c84.8-235.6 179.1-282.72 103.7-301.56-75.4-18.86-254.5 235.59-254.5 235.59s66-518.32-169.6-650.25c0 0-28.3-37.71 0 103.66 28.3 141.36 103.6 226.17 66 358.11 0 0-188.5-405.23-235.6-433.5-47.2-28.27 56.5 358.1 113 433.5 56.6 75.39-160.2-245.03-245-254.45-84.8-9.42 56.6 84.82 103.7 160.21 47.1 75.4-235.6-141.36-169.7-37.7 66 103.67 150.8 141.37 179.1 263.88 28.3 122.51 81.8 275.29 125.7 429.79 43.9 154.5 62.8 277.01 62.8 277.01l301.6-113.09-47.2-103.66M16941.9 13291.3l-612.6-311 179.1-442.9s622 518.3 640.8 527.7c18.9 9.4 263.9 150.8 245.1 386.4-18.9 235.6-103.7 442.9-160.2 424.1-56.6-18.9-66-424.1-84.9-461.8-18.8-37.7-207.3-122.5-207.3-122.5" style="fill:#f7bb9f;fill-opacity:1;fill-rule:nonzero;stroke:none" transform="matrix(.13333 0 0 -.13333 0 2245.333)"/><path d="M15010 8918.5c-169.4-216.3-433.2-310.8-726.2-333.5-458.9-35.7-989.7 104.8-1341.7 229.1-236.1 83.4-391.8 159.5-391.8 170.4 0 35.7 8.4 883.8 9.3 972.6.1 4.9.1 7.5.1 7.5s-329.8-1178-574.8-1394.8c-217.1-192-493.3-88.2-691.1 55.9-25.5 18.6-49.7 37.8-72.3 57.2-197.9 169.7 1130.9 2450.3 1328.8 2799 197.9 348.7 334.6 334.5 584.3 339.2 119.9 2.3 184.1-26.9 231.7-56.4 51.5-31.8 83.4-63.9 145.3-56.6 118.9 14 418.2 131.3 570.1 155.5 51 8.1 99.4 1.5 145.2-18 209.5-88.9 365.9-445.3 481.5-880.6 3.5-13.1 7-26.2 10.4-39.4 214.1-832.7 283.4-1927.6 290.9-2004.3l.1-.6.2-2.2" style="fill:#7740e6;fill-opacity:1;fill-rule:nonzero;stroke:none" transform="matrix(.13333 0 0 -.13333 0 2245.333)"/><path d="M11293.8 8625.7c-25.5 18.6-49.7 37.8-72.3 57.2-13.6 11.68-20 33.37-20 63.75-.3 410.82 1164.5 2410.55 1348.8 2735.25 197.9 348.7 334.6 334.5 584.3 339.2 4.5.1 8.9.1 13.2.1 111.5 0 172.7-28.1 218.5-56.5-9.2-35-35.3-64.8-85.4-83.6-49.1-18.4-97.3-22.5-145.2-22.5-19.6 0-39 .7-58.5 1.3-19.5.7-38.9 1.4-58.4 1.4-72.2 0-144.4-9.5-218.3-64.1-101.2-74.8-80.6-129.7-289.6-431.2-114.8-165.5-132.9-154.6-240.9-306-136.4-191.3-180.9-311.7-300-550-169.9-339.89-231.6-399.37-340-610-120.9-234.86-262.6-585.04-336.2-1074.3" style="fill:#4e2175;fill-opacity:1;fill-rule:nonzero;stroke:none" transform="matrix(.13333 0 0 -.13333 0 2245.333)"/><path d="M16018.3 11604.4c-136.8-82.1-360.4-201.4-589.9-320.1l-.6-.4c-3.1-1.5-6.2-3.2-9.4-4.9-1.6-.8-3.3-1.7-5.3-2.6-187-96.6-376.6-192.3-525.2-266.6-65.6-32.8-123.3-61.5-169.1-84.2-71.3-35.3-114.1-56.3-114.1-56.3l-19.2 41.9-.1.3-416.7 907.7 58.2 26.4 754.8 343.1 1588 947.1s140.2-149.8 240.5-349c39.7-79 73.2-165.8 89.3-254.1 56.5-311-504.2-702.1-881.2-928.3" style="fill:#7740e6;fill-opacity:1;fill-rule:nonzero;stroke:none" transform="matrix(.13333 0 0 -.13333 0 2245.333)"/><path d="m13631.3 12189.1 48.7-419.2c8.7-75.8-43.7-145-119-157.1-104.9-16.8-235.4-31.4-252.1-3.7-18.7 31.2-45.6 359.2-61.7 577.7-7.1 96.5 81.9 171.8 175.8 148.9l100.6-24.6c57.9-14.1 100.9-62.8 107.7-122" style="fill:#eca891;fill-opacity:1;fill-rule:nonzero;stroke:none" transform="matrix(.13333 0 0 -.13333 0 2245.333)"/><path d="M13667.1 12862.5s188.4 9.4 216.7-245c28.3-254.5-94.2-518.3-263.9-546.6-169.6-28.3-471.2 150.8-480.6 160.2-9.4 9.4-197.9 84.8-131.9 197.9 65.9 113.1 150.8 37.7 150.8 37.7s-66 292.1 65.9 348.7c132 56.5 443 47.1 443 47.1" style="fill:#f7bb9f;fill-opacity:1;fill-rule:nonzero;stroke:none" transform="matrix(.13333 0 0 -.13333 0 2245.333)"/><path d="M12942.1 8814.1c-236.1 83.4-391.8 159.5-391.8 170.4 0 35.7 8.4 883.8 9.3 972.6.1 1 .3 1.9.4 2.9l329.5 1028.1c-11.4-43.6-217.9-847.1-159.5-1168.1 36.4-200.3 72.8-647.4 212.1-1005.9" style="fill:#4e2175;fill-opacity:1;fill-rule:nonzero;stroke:none" transform="matrix(.13333 0 0 -.13333 0 2245.333)"/><path d="M15246.9 12245.8c-6.8 0-12.1 1.2-15.7 3.5-89.3 59.5 1252.2 751.6 1325.9 751.6 1.5 0 2.5-.3 2.9-.9l20-30c-67.3-38.4-1166-724.2-1333.1-724.2M13821.4 11688.2c-6.5 0-13.1.1-19.7.4-9.1.5-18.5 1.3-26.6 6.3-8.2 4.9-14.8 14.9-14.1 25.7.8 12.2 9.9 20.9 18.5 27.6 48.3 37.5 105.6 58.1 163.3 59.6 19.9-2.3 39.7-4.6 59.6-6.9 14.8-1.8 32.9-6.6 36.9-23.7 2.3-9.9-1.5-20.6-7.6-27.9-6-7.3-14.1-11.7-22-15.7-59.4-29.9-123.8-45.4-188.3-45.4m165.1 117-34.9 2.7c11.7-.1 23.3-1 34.9-2.7m-43.7 2.6c-6.3.7-12.5 1.5-18.8 2.2l27.6-2.1h-2.1c-2.2 0-4.5 0-6.7-.1" style="fill:#a39bc5;fill-opacity:1;fill-rule:nonzero;stroke:none" transform="matrix(.13333 0 0 -.13333 0 2245.333)"/><path d="M14719.5 10922.7c-.2 1-.5 1.9-.7 2.9 25.7 12.8 55.2 27.4 87.8 43.6-33.9-19.1-69.2-39.4-87.1-46.5" style="fill:#e6e6e6;fill-opacity:1;fill-rule:nonzero;stroke:none" transform="matrix(.13333 0 0 -.13333 0 2245.333)"/><path d="M14710 10920c1.6 1.2 3.1 2.4 4.7 3.6 1.4.7 2.7 1.3 4.1 2 .2-1 .5-1.9.7-2.9-4.2-1.7-7.5-2.7-9.5-2.7" style="fill:#4e2175;fill-opacity:1;fill-rule:nonzero;stroke:none" transform="matrix(.13333 0 0 -.13333 0 2245.333)"/><path d="M14714.7 10923.6c244.9 185.3 638.5 408.7 908.7 550.8 271.9 142.9 543 296.2 764.4 509.2 183.9 176.9 340 405.5 392.8 658.6 10.6 51 10 104.3 29.6 144.6 39.7-79 73.2-165.8 89.3-254.1 2.7-14.6 3.9-29.3 4-44.2.3-303.1-525.9-668.5-885.2-884.1-136.8-82.1-360.4-201.4-589.9-320.1l-.6-.4c-3.1-1.5-6.2-3.2-9.4-4.9-1.6-.8-3.3-1.7-5.3-2.6-187-96.6-376.6-192.3-525.2-266.6-9.2-.1-44.4-19.7-81.3-40.6-32.6-16.2-62.1-30.8-87.8-43.6-1.4-.7-2.7-1.3-4.1-2" style="fill:#4e2175;fill-opacity:1;fill-rule:nonzero;stroke:none" transform="matrix(.13333 0 0 -.13333 0 2245.333)"/><path d="M10999.1 11191.3c-37.2 66.4-58.3 146.9-46.4 224.3 11.9 77.5 60.7 149.5 127.7 170.4 67.1 20.9 147.8-19.9 169.3-94.6 68.8 71.7 192.8 57 246.9-29.3 42.4-67.7 39.6-163.5 3.6-235.8-35.9-72.4-100.3-122.6-169.5-150.3-149.4-59.8-244.8-40-331.6 115.3M11508 13896c-37.2 66.4-58.3 146.9-46.4 224.3 11.9 77.5 60.7 149.5 127.7 170.4 67 20.9 147.8-19.9 169.3-94.6 68.8 71.7 192.8 57 246.9-29.3 42.4-67.7 39.6-163.5 3.6-235.8-35.9-72.3-100.3-122.6-169.5-150.3-149.4-59.8-244.8-40-331.6 115.3M8407.44 14442.6c-37.15 66.4-58.21 146.9-46.35 224.3s60.73 149.5 127.74 170.4c67 20.9 147.79-19.9 169.3-94.6 68.77 71.7 192.71 57 246.83-29.3 42.43-67.7 39.59-163.5 3.64-235.8-35.94-72.3-100.32-122.7-169.51-150.3-149.36-59.8-244.77-40-331.65 115.3M7361.37 13076.1c-37.15 66.4-58.21 146.9-46.35 224.3 11.86 77.5 60.73 149.5 127.74 170.4 67.01 20.9 147.79-19.9 169.3-94.6 68.77 71.7 192.72 57.1 246.83-29.3 42.43-67.7 39.59-163.5 3.64-235.8-35.94-72.3-100.32-122.6-169.51-150.3-149.36-59.8-244.77-40-331.65 115.3M9575.07 12678.4c-22.34 39.9-35 88.4-27.87 134.9 7.14 46.6 36.52 89.9 76.81 102.5 40.3 12.5 88.87-12 101.81-56.9 41.35 43.1 115.88 34.3 148.42-17.6 25.51-40.7 23.8-98.3 2.19-141.8-21.62-43.5-60.33-73.8-101.93-90.4-89.81-36-147.19-24.1-199.43 69.3M11926.1 13285.2c-25.7 45.8-40.2 101.4-32 154.9 8.2 53.4 41.9 103.2 88.2 117.6 46.2 14.4 102-13.8 116.9-65.3 47.5 49.5 133 39.4 170.4-20.2 29.3-46.8 27.3-112.9 2.5-162.8-24.8-50-69.3-84.7-117-103.8-103.2-41.3-169-27.7-229 79.6M10587.9 15763.7c-25.7 45.9-40.2 101.5-32 154.9 8.2 53.5 41.9 103.2 88.2 117.6 46.2 14.5 102-13.7 116.9-65.3 47.4 49.5 133 39.4 170.4-20.2 29.3-46.7 27.3-112.9 2.5-162.8-24.8-50-69.3-84.7-117-103.8-103.2-41.3-169-27.6-229 79.6M11799.2 11953.3c-15.3 27.3-24 60.5-19.1 92.3 4.9 31.9 25 61.6 52.6 70.2 27.5 8.6 60.8-8.2 69.7-39 28.3 29.5 79.3 23.5 101.6-12 17.4-27.9 16.3-67.4 1.5-97.1-14.8-29.8-41.3-50.5-69.8-61.9-61.5-24.6-100.8-16.5-136.5 47.5M8201.72 12129.5c-31.3 55.9-49.05 123.8-39.05 189 9.99 65.3 51.17 126 107.63 143.6 56.47 17.6 124.54-16.8 142.66-79.7 57.95 60.4 162.4 48 208-24.7 35.75-57 33.36-137.8 3.07-198.7-30.29-61-84.54-103.4-142.84-126.7-125.86-50.4-206.26-33.7-279.47 97.2M11933.6 15512.7c-31.3 56-49 123.8-39 189.1 10 65.2 51.2 125.9 107.6 143.5 56.5 17.6 124.6-16.8 142.7-79.7 57.9 60.5 162.4 48.1 208-24.7 35.7-57 33.3-137.7 3.1-198.7-30.3-60.9-84.6-103.3-142.9-126.7-125.8-50.3-206.2-33.7-279.5 97.2M9653.03 15050.9c-31.31 56-49.06 123.9-39.06 189.1 9.99 65.2 51.17 126 107.64 143.6 56.46 17.6 124.53-16.8 142.66-79.8 57.95 60.5 162.43 48.1 208.03-24.6 35.7-57.1 33.3-137.8 3-198.8-30.3-60.9-84.5-103.3-142.8-126.6-125.86-50.4-206.26-33.7-279.47 97.1M11101.8 12810.8c-15.3 27.4-24 60.5-19.1 92.4 4.9 31.9 25 61.6 52.6 70.2 27.6 8.5 60.8-8.3 69.7-39 28.3 29.5 79.3 23.5 101.6-12.1 17.5-27.8 16.3-67.3 1.5-97-14.8-29.8-41.3-50.5-69.8-61.9-61.5-24.6-100.8-16.5-136.5 47.4M7916.45 15572.1c-15.3 27.3-23.97 60.5-19.09 92.3 4.89 31.9 25.01 61.6 52.59 70.2 27.59 8.6 60.85-8.2 69.7-39 28.31 29.6 79.34 23.5 101.62-12 17.47-27.9 16.3-67.3 1.5-97.1-14.8-29.8-41.31-50.5-69.79-61.9-61.49-24.6-100.77-16.5-136.53 47.5M8141.31 10836.1c-43.98 21.6-84.62 56.6-106.67 101.9-22.05 45.4-22.54 101.4 5.31 137 27.85 35.6 85.58 43.5 124.32 11.8 10.16 63.2 81.19 100.8 141.44 74.9 47.25-20.3 80.81-72.1 88.25-123.6 7.43-51.5-8.26-101.7-34.78-141.7-57.23-86.3-115.01-110.7-217.87-60.3" style="fill:#a12834;fill-opacity:1;fill-rule:nonzero;stroke:none" transform="matrix(.13333 0 0 -.13333 0 2245.333)"/></svg>